HIERARCHY
ROOT Bone
{
	OFFSET 0.000000 0.000000 0.000000
	CHANNELS 6 Xposition Yposition Zposition Xrotation Yrotation Zrotation
	JOINT Bone.001
	{
		OFFSET 0.000000 0.000000 0.131190
		CHANNELS 3 Xrotation Yrotation Zrotation
		JOINT Bone.002
		{
			OFFSET 0.000000 0.000000 0.133762
			CHANNELS 3 Xrotation Yrotation Zrotation
			JOINT Bone.003
			{
				OFFSET 0.000000 0.000000 0.133762
				CHANNELS 3 Xrotation Yrotation Zrotation
				JOINT Bone.004
				{
					OFFSET -0.002572 0.000000 0.133762
					CHANNELS 3 Xrotation Yrotation Zrotation
					JOINT Bone.005
					{
						OFFSET -0.007717 0.000000 0.133762
						CHANNELS 3 Xrotation Yrotation Zrotation
						End Site
						{
							OFFSET 0.002572 0.000000 0.133762
						}
					}
				}
			}
		}
	}
}
MOTION
Frames: 25
Frame Time: 0.041667
0.000000 0.000000 0.000000 0.000000 0.000000 0.000000 0.000000 0.000000 0.000000 0.000000 0.000000 0.000000 0.000000 -1.101706 0.000000 0.000000 -2.200160 0.000000 0.000000 4.403572 0.000000 
0.000000 0.000000 0.000000 0.000000 0.000000 0.000000 0.000000 0.000000 0.000000 0.000000 0.000000 0.000000 0.000000 -1.101706 0.000000 0.000000 -2.200160 0.000000 0.000000 4.403572 0.000000 
0.000000 0.000000 0.000000 0.000000 1.123303 0.000000 0.000000 -1.123303 0.000000 0.000000 0.000000 0.000000 0.000000 -1.101706 0.000000 0.000000 -2.200160 0.000000 0.000000 4.403572 0.000000 
0.000000 0.000000 0.000000 0.000000 1.060912 0.000000 0.000000 -1.060912 0.000000 0.000000 0.000000 0.000000 0.000000 -1.101706 0.000000 0.000000 -2.200160 0.000000 0.000000 4.403572 0.000000 
0.000000 0.000000 0.000000 0.000000 1.101706 0.000000 0.000000 -1.101706 0.000000 0.000000 0.000000 0.000000 0.000000 -1.101706 0.000000 0.000000 -2.200160 0.000000 0.000000 4.403572 0.000000 
0.000000 0.000000 0.000000 0.000000 1.060912 0.000000 0.000000 -1.060912 0.000000 0.000000 0.000000 0.000000 0.000000 -1.101706 0.000000 0.000000 -1.100892 0.000000 0.000000 3.304304 0.000000 
0.000000 0.000000 0.000000 0.000000 1.080924 0.000000 0.000000 0.000000 0.000000 0.000000 -2.161848 0.000000 0.000000 0.000000 0.000000 0.000000 -1.080155 0.000000 0.000000 3.242004 0.000000 
0.000000 0.000000 0.000000 0.000000 2.121096 0.000000 0.000000 -2.121096 0.000000 0.000000 0.000000 0.000000 0.000000 -2.161079 0.000000 0.000000 0.000000 0.000000 0.000000 3.242004 0.000000 
0.000000 0.000000 0.000000 0.000000 2.082565 0.000000 0.000000 -2.082565 0.000000 0.000000 0.000000 0.000000 0.000000 -1.101706 0.000000 0.000000 -1.100892 0.000000 0.000000 2.202598 0.000000 
0.000000 0.000000 0.000000 0.000000 2.161079 0.000000 0.000000 -1.080155 0.000000 0.000000 -1.080924 0.000000 0.000000 -2.161079 0.000000 0.000000 0.000000 0.000000 0.000000 3.242004 0.000000 
0.000000 0.000000 0.000000 0.000000 3.239700 0.000000 0.000000 -3.239700 0.000000 0.000000 0.000000 0.000000 0.000000 -1.080924 0.000000 0.000000 -1.080155 0.000000 0.000000 3.242004 0.000000 
0.000000 0.000000 0.000000 0.000000 3.239700 0.000000 0.000000 -2.158776 0.000000 0.000000 -1.080924 0.000000 0.000000 0.000000 0.000000 0.000000 -3.239700 0.000000 0.000000 4.320624 0.000000 
0.000000 0.000000 0.000000 0.000000 4.236395 0.000000 0.000000 -3.155471 0.000000 0.000000 -1.080924 0.000000 0.000000 0.000000 0.000000 0.000000 -2.161079 0.000000 0.000000 2.161079 0.000000 
0.000000 0.000000 0.000000 0.000000 4.236395 0.000000 0.000000 -3.155471 0.000000 0.000000 -1.080924 0.000000 0.000000 0.000000 0.000000 0.000000 -2.161079 0.000000 0.000000 2.161079 0.000000 
0.000000 0.000000 0.000000 0.000000 5.290081 0.000000 0.000000 -3.168985 0.000000 0.000000 -2.121096 0.000000 0.000000 0.000000 0.000000 0.000000 -1.060912 0.000000 0.000000 2.121823 0.000000 
0.000000 0.000000 0.000000 0.000000 6.225829 0.000000 0.000000 -5.164917 0.000000 0.000000 1.060185 0.000000 0.000000 -2.121096 0.000000 0.000000 -1.060912 0.000000 0.000000 1.060912 0.000000 
0.000000 0.000000 0.000000 0.000000 6.115504 0.000000 0.000000 -3.954424 0.000000 0.000000 -1.080155 0.000000 0.000000 0.000000 0.000000 0.000000 -2.161848 0.000000 0.000000 2.161848 0.000000 
0.000000 0.000000 0.000000 0.000000 6.009006 0.000000 0.000000 -3.847926 0.000000 0.000000 0.000000 0.000000 0.000000 -2.161079 0.000000 0.000000 0.000000 0.000000 0.000000 1.080924 0.000000 
0.000000 0.000000 0.000000 0.000000 6.115504 0.000000 0.000000 -2.935673 0.000000 0.000000 -2.118918 0.000000 0.000000 0.000000 0.000000 0.000000 -2.121823 0.000000 0.000000 2.121823 0.000000 
0.000000 0.000000 0.000000 0.000000 6.009006 0.000000 0.000000 -3.847926 0.000000 0.000000 0.000000 0.000000 0.000000 -1.080155 0.000000 0.000000 -1.080924 0.000000 0.000000 1.080924 0.000000 
0.000000 0.000000 0.000000 0.000000 6.115504 0.000000 0.000000 -2.935673 0.000000 0.000000 -2.118918 0.000000 0.000000 0.000000 0.000000 0.000000 -1.060912 0.000000 0.000000 1.060912 0.000000 
0.000000 0.000000 0.000000 0.000000 6.225829 0.000000 0.000000 -3.045999 0.000000 0.000000 -2.118918 0.000000 0.000000 0.000000 0.000000 0.000000 -1.060912 0.000000 0.000000 1.060912 0.000000 
0.000000 0.000000 0.000000 0.000000 7.001268 0.000000 0.000000 -3.821437 0.000000 0.000000 -2.118918 0.000000 0.000000 0.000000 0.000000 0.000000 -1.060912 0.000000 0.000000 2.121096 0.000000 
0.000000 0.000000 0.000000 0.000000 6.881724 0.000000 0.000000 -3.701894 0.000000 0.000000 -2.118918 0.000000 0.000000 0.000000 0.000000 0.000000 -1.060912 0.000000 0.000000 2.121096 0.000000 
0.000000 0.000000 0.000000 0.000000 7.386043 0.000000 0.000000 -4.206213 0.000000 0.000000 -1.058734 0.000000 0.000000 -1.060185 0.000000 0.000000 -1.060912 0.000000 0.000000 2.121096 0.000000 
